<?xml version="1.0" standalone="no"?><!DOCTYPE svg PUBLIC "-//W3C//DTD SVG 1.1//EN" "http://www.w3.org/Graphics/SVG/1.1/DTD/svg11.dtd"><svg class="icon" width="200px" height="154.92px" viewBox="0 0 1322 1024" version="1.1" xmlns="http://www.w3.org/2000/svg"><path fill="#333333" d="M1237.634613 1024.00125l-1153.925188 0c-46.149507 0-83.709425-36.899854-83.709425-82.221779L0 82.189276c0-45.289423 37.559918-82.189276 83.709425-82.189276l1153.925188 0c46.153257 0 83.744428 36.899854 83.744428 82.189276l0 859.588944C1321.379041 987.101397 1283.78787 1024.00125 1237.634613 1024.00125L1237.634613 1024.00125zM1255.272585 95.700596c0-16.28534-13.607579-29.532884-30.356715-29.532884l-1128.455201 0c-16.749136 0-30.359215 13.247544-30.359215 29.532884l0 832.598808c0 16.28659 13.643832 29.532884 30.359215 29.532884l1128.455201 0c16.749136 0 30.356715-13.246294 30.356715-29.532884L1255.272585 95.700596 1255.272585 95.700596zM726.592206 494.954585 1156.600449 494.954585l0 66.167712L726.592206 561.122297 726.592206 494.954585 726.592206 494.954585zM726.592206 264.110792 1156.600449 264.110792l0 66.200215L726.592206 330.311007 726.592206 264.110792 726.592206 264.110792zM1156.567946 792.826174 165.667428 792.826174l0-66.201465 990.900518 0L1156.567946 792.826174 1156.567946 792.826174zM272.68788 256.186268c-10.13724 21.003301-23.542299 48.691005-40.213927 83.060611 10.723547 0 30.384217-0.626311 58.98076-1.908936 11.896162-24.16611 20.246977-47.079598 25.022444-68.740463 8.322063 7.638246 21.447094 15.275242 39.32009 22.913488-10.723547 16.559117-22.955992 36.936107-36.639828 61.102217-13.711339 24.196113-32.478172 56.030472-56.299248 95.471823 38.119973-5.071745 68.50294-8.890868 91.151402-11.457369l0 32.46067c-15.499014 1.282625-35.745991 3.819123-60.767184 7.638246s-48.871023 8.920871-71.491982 15.275242c-1.200117-12.709991-5.361774-26.076297-12.511222-40.098916 13.097529-5.071745 25.301221-15.275242 36.639828-30.550483 11.309854-15.275242 22.340932-34.369606 33.064479-57.283094-7.149448 0-17.286688 0.955093-30.384217 2.86403-13.126282 1.908936-25.636254 6.056841-37.532415 12.411212-4.775466-15.275242-9.550933-28.641547-14.298896-40.098916 10.723547-12.709991 22.340932-33.414513 34.852154-62.05731s22.927239-59.49081 31.278054-92.607794c13.097529 7.638246 26.808868 14.022619 41.107764 19.094365C293.242387 217.69876 282.797617 235.181717 272.68788 256.186268zM350.435472 558.833324c-23.849829 3.819123-47.669655 8.592089-71.491982 14.320148-23.849829 5.728059-45.883231 13.038773-66.128958 21.958394-3.574099-11.457369-8.349565-25.448735-14.298896-42.009102 32.170642-3.819123 53.897763-6.980682 65.236371-9.547182 11.309854-2.535248 40.213927-8.263307 86.683465-17.184178L350.435472 558.833324zM618.527903 604.659049c-17.872995-1.282625-39.32009-1.908936-64.342533-1.908936L414.778006 602.750112c-23.849829 0-44.681863 0.626311-62.554859 1.908936L352.223147 568.380506c15.470261 1.282625 28.596543 1.908936 39.32009 1.908936L391.543237 283.872722c0-30.550483-1.200117-52.181346-3.574099-64.92134l187.664577 0c-1.200117 11.457369-1.787675 33.116984-1.787675 64.92134l0 286.41672c15.470261 0 30.384217-0.626311 44.681863-1.908936L618.527903 604.659049zM539.887723 333.51882l0-84.015705-114.386171 0 0 84.015705L539.887723 333.51882zM539.887723 442.356949l0-78.287645-114.386171 0 0 78.287645L539.887723 442.356949zM539.887723 570.289442l0-95.471823-114.386171 0 0 95.471823L539.887723 570.289442z" /></svg>